<svg id="Camada_1" data-name="Camada 1" xmlns="http://www.w3.org/2000/svg" viewBox="0 0 66.75 122.96">
  <title>facebook-alt</title>
  <path id="Seleção" d="M46.56,44.16c0-12.72-1.52-26.27,8.18-36.23a28.74,28.74,0,0,1,5-3.88C68.4-1,76.15,0,85.68,0h6A2.85,2.85,0,0,1,94,.62c.89.86.85,2.08.85,3.22V17.28c0,1.38.22,4.38-.5,5.47C93.48,24,91.81,24,90.48,24H80.64a9.08,9.08,0,0,0-5.51,1.57c-1.78,1.42-2,3.07-2.27,5.15l-.14,13.44H90.48c3.17,0,3.6,1.13,3.6,4.08V62.4c0,1.51.23,4.75-.55,5.95s-2.44,1.25-3.77,1.25h-17v48.72c0,1.08.17,2.68-.45,3.57-.75,1.08-1.75,1-2.91,1H49.92c-3.05,0-3.36-1.36-3.36-4.08V69.6h-12c-1.45,0-4.05.2-5.25-.55s-1.23-2.21-1.23-3.53V47.76c0-2.7.61-3.6,3.36-3.6Z" transform="translate(-28.08 0.08)"/>
</svg>
