<?xml version="1.0" encoding="utf-8"?>
<!-- Generator: Adobe Illustrator 22.0.0, SVG Export Plug-In . SVG Version: 6.00 Build 0)  -->
<svg version="1.1" id="Camada_1" xmlns="http://www.w3.org/2000/svg" xmlns:xlink="http://www.w3.org/1999/xlink" x="0px" y="0px"
	 viewBox="0 0 1104 1104" style="enable-background:new 0 0 1104 1104;" xml:space="preserve">
<path id="Seleção" d="M553.4,190.6c2.5-4.3,12.2-16.4,15.7-20.6c11.4-13.7,22.6-25.4,35.6-37.5c21.3-19.8,49.9-39.5,76.3-51.6
	c29.3-13.5,58.6-21.9,90.7-25c12.4-1.2,24.9-1.2,37.4-1l5.3,0.5c14.7,0.6,29.3,2.9,43.7,6.1c53.2,11.8,103.2,39.4,142.6,77
	c46.1,44.1,78.3,100.9,93.8,162.7c3,12,5.4,24.2,7.2,36.5l2.3,20.6v69.6l-1.8,16.8l-5.9,34.6c-9.4,45.2-27.8,94.3-49.8,134.9
	c-11.7,21.6-23.9,42.6-37.8,62.9c-74.1,109-177,198.3-285,272.6c-40.4,27.9-82.2,53.8-124.8,78.2l-33.6,18.8l-8.2,4.5
	c-1.1,0.6-3.1,1.7-4.3,1.6c-1.3-0.1-4.1-1.8-5.3-2.5l-10.1-5.6l-34.6-19.5c-45.4-25.9-89.6-54.1-132.5-84.1
	c-55.3-38.6-107.8-81-156.5-127.6l-29.3-29.7c-51.5-53.9-97.2-114.1-130.7-181c-21.7-43.4-38-89-46.6-136.8
	c-2.7-14.8-4.6-29.6-5.6-44.6l-0.4-4.8L1,407.5V397l-0.3-5.3l0.3-4.8v-11.5l0.9-12.5c1.4-19.9,4.6-39.6,9.2-59
	C34.7,204.3,103.6,116.9,198.7,77c26.5-11.1,54.8-18.5,83.5-21.2c12.3-1.2,24.6-1.1,37-1l5.8,0.5h3.8c11.1,0.8,22.2,2.5,33.1,4.7
	c55.2,11,103,38.3,144,76.5c11.6,10.8,22.4,22.7,32.4,35l9.5,12L553.4,190.6z M553,276.5l-18-29.8c-17.3-27.9-36.5-54.3-60.7-76.8
	c-23.6-22-48.5-38.9-78.2-51.6c-23.2-9.9-47.8-15.4-73-17.1l-5.8-0.4h-17.8l-5.8,0.4c-15.1,1-29.9,3.3-44.6,7.2
	c-63.4,16.7-119.6,60.2-154.5,115.3c-25.3,39.8-39.7,82-45.5,128.6c-2.3,18.2-2.3,36.4-2.1,54.7l0.5,5.3c0.8,17.5,3.2,35.1,6.6,52.3
	c9,44.8,25.7,89.4,47.5,129.6c8.1,15,16.7,29.8,25.9,44.2c67,104.1,163.6,189.3,263.7,260.8c30.5,21.8,62.1,42.2,94.1,61.8
	l26.4,15.7l30.7,17.7l7.2,4.1c1.4,0.7,2.7,1.7,4.3,1.4c1-0.2,4.2-2.1,5.3-2.8l11-6.2l35.5-20.6c41.3-24.8,82-50.9,121-79.3
	C816,825.8,900.5,751,964.2,660c39.7-56.7,71.4-119.3,86.3-187.2c3.9-17.9,6.7-36,7.9-54.2l0.4-6.2l0.5-7.7v-25l-0.5-9.1l-0.4-4.8
	l-1.4-14.4c-1.7-14.6-4.5-29-8.3-43.2c-21.2-80.5-75.9-150.6-152.1-185.6c-21.3-9.8-45.9-17.1-69.1-19.9l-11.5-1.4h-3.8l-5.8-0.5
	h-17.3l-5.8,0.4c-11.4,0.8-22.5,2.2-33.6,4.6c-60.6,13.4-109.9,49.8-148.4,97.6c-10.4,13-19.8,26.7-28.5,40.8L553,276.5z"/>
</svg>
