<svg id="Camada_1" data-name="Camada 1" xmlns="http://www.w3.org/2000/svg" viewBox="0 0 71.13 57.63">
  <title>twitter-alt</title>
  <path id="Seleção" d="M34.85,17.89a16.47,16.47,0,0,1-.24-4C34.7,6.7,41.26.36,48.36.35,51.45.34,53.05.27,56,1.72c1.21.61,3.73,2.78,4.74,2.79s4.88-1.48,5.93-2a17.39,17.39,0,0,1,2.61-1.24c-.51,3.25-3,5.83-5.45,7.83A34,34,0,0,0,71.13,7c-.59,2.16-3.34,4.67-5,6.15a13.5,13.5,0,0,0-1.9,1.75c-.38.65-.23,2.87-.24,3.72A39.93,39.93,0,0,1,62,29.51C58.18,40.85,50.09,50.44,38.88,55c-7.2,2.93-12.1,3-19.68,3C15,57.91,8.53,56,4.74,54.22A16.37,16.37,0,0,1,0,51.32l3.79.21c5.76-.25,12.61-2.14,17.07-5.9a22.25,22.25,0,0,1-4.26-1.06A14.81,14.81,0,0,1,7.82,35.2c2.57,0,3.33.59,6.17-.24-5.16-.8-9.43-5.53-10.73-10.43a14.1,14.1,0,0,1-.41-4c1.91.54,3.86,1.84,5.92,1.42a8.56,8.56,0,0,1-3-2.84A15,15,0,0,1,3.5,6,23.72,23.72,0,0,1,4.74,3c1.51.72,2,1.69,3.09,2.85a48.68,48.68,0,0,0,4.26,3.7C18.42,14.26,26.83,17.89,34.85,17.89Z" transform="translate(0 -0.34)"/>
</svg>
