<svg id="Camada_1" data-name="Camada 1" xmlns="http://www.w3.org/2000/svg" viewBox="0 0 185.75 187.27">
  <title>alt-whatsapp</title>
  <path id="Seleção" d="M4,190.52,7.27,177.2l6-22.08,2.8-11.42c0-2.36-1.49-4.77-2.5-6.85l-3.5-8.38a91.2,91.2,0,0,1-5.38-25.12l-.35-3.8c-.2-17.34,2.78-30.9,10.56-46.44A91.54,91.54,0,0,1,69.47,7.81,102.93,102.93,0,0,1,88.12,3.9a35.14,35.14,0,0,1,5.33-.65h8c7.55,0,21,3.09,28.17,5.72A93.59,93.59,0,0,1,182,58.06c3.81,8.44,7.71,22.72,7.73,32v12.18a69.08,69.08,0,0,1-1.82,13.32,90.29,90.29,0,0,1-11.34,28.93c-8.23,13.22-16.38,21.81-29.47,30.32-12.39,8.05-30.44,14.14-45.3,14.22l-5.33.34-3.8-.34H91.17c-8.85-.11-18.74-2.94-27-5.84-3.21-1.13-9.26-4.51-12.18-4.55-2.16,0-11.82,2.64-14.46,3.37l-20.94,5.45Zm22.08-22.08,19.41-4.84c2.06-.57,7.28-2.15,9.13-1.94,2.11.24,4.27,1.64,6.09,2.65L68,167.73c7.13,3,17.37,5.57,25.12,5.66h6.85l4.57-.35a75.87,75.87,0,0,0,33.87-11.38,77.41,77.41,0,0,0,23.2-22.53,79.49,79.49,0,0,0,11-25.5,80.65,80.65,0,0,0,1.65-12.94l.34-3.43-.34-5-1-9.51a78.55,78.55,0,0,0-20.41-40.35,81.78,81.78,0,0,0-21.68-15.68c-7.81-3.89-20.95-7.52-29.69-7.54H93.83c-13.37,0-29.45,5.88-40.35,13.43A74.75,74.75,0,0,0,30,58.44a78,78,0,0,0-10,39.2l.39,3.81v3a79.33,79.33,0,0,0,5.11,20.18l3,6.47c2.35,4.44,4.2,6.89,4.07,12.18-.07,3.25-1.24,5.39-2.12,8.37ZM64.14,53.28c1.93-.25,6.35.07,7.91,1.25,1.36,1,2.54,4.2,3.24,5.81,1.23,2.86,5.94,13.59,6.22,16,.37,3.15-3,6.88-4.84,9.13-1,1.23-2.56,2.85-2.35,4.57.15,1.29,1.86,3.79,2.61,5a74.33,74.33,0,0,0,11.19,12.91,63.73,63.73,0,0,0,15.23,9.83c1.91.92,4.79,2.36,6.83,1.2,1.49-.84,5.68-6.6,7.15-8.33,1.3-1.53,2.82-3.24,5-2.89a52.41,52.41,0,0,1,6.47,2.79l11,5.33c2.6,1.33,4.12,1.88,4.18,5a15.74,15.74,0,0,1-1,6.85c-3,8.27-11.43,12.91-19.91,13.29a18.69,18.69,0,0,1-3-.28,56.09,56.09,0,0,1-13.7-2.86c-19.19-6.66-34.92-21.08-46.33-37.55C55,93,50.07,85.12,50.06,76a25.81,25.81,0,0,1,6.88-18.27C59.4,55,60.58,54,64.14,53.28Z" transform="translate(-4 -3.25)"/>
</svg>
